<?xml version="1.0" encoding="utf-8"?>
<!-- Generator: Adobe Illustrator 25.0.1, SVG Export Plug-In . SVG Version: 6.00 Build 0)  -->
<svg version="1.1" id="图层_1" xmlns="http://www.w3.org/2000/svg" xmlns:xlink="http://www.w3.org/1999/xlink" x="0px" y="0px"
	 viewBox="0 0 18 18" style="enable-background:new 0 0 18 18;" xml:space="preserve">
<style type="text/css">
	.st0{fill-rule:evenodd;clip-rule:evenodd;fill:#FF6666;}
</style>
<path class="st0" d="M8.1,3.2l0.5,0.5C8.7,3.8,8.8,3.9,9,4.1l0,0l1.1,1.2c0.2,0.3,0.7,0.3,0.9,0c0,0,0,0,0,0c0.3-0.3,0.3-0.7,0-0.9
	L9.9,3.2c2.6-2.7,7.9-0.8,7,4.4c-0.5,2.7-7.1,8-7.1,8c-0.4,0.4-1.1,0.4-1.6,0c0,0-6.6-5.2-7.1-8.1C0.8,6,1.1,4.9,1.6,4
	C2.8,1.6,6.2,1.5,8.1,3.2L8.1,3.2z"/>
</svg>
