<?xml version="1.0" encoding="utf-8"?>
<!-- Generator: Adobe Illustrator 25.0.1, SVG Export Plug-In . SVG Version: 6.00 Build 0)  -->
<svg version="1.1" id="图层_1" xmlns="http://www.w3.org/2000/svg" xmlns:xlink="http://www.w3.org/1999/xlink" x="0px" y="0px"
	 viewBox="0 0 18 18" style="enable-background:new 0 0 18 18;" xml:space="preserve">
<path id="theme_color" d="M9,16c3.9,0,7-3.1,7-7s-3.1-7-7-7S2,5.1,2,9S5.1,16,9,16z M9,17c-4.4,0-8-3.6-8-8s3.6-8,8-8s8,3.6,8,8
	S13.4,17,9,17z M6,8c0.6,0,1,0.4,1,1s-0.4,1-1,1S5,9.6,5,9S5.4,8,6,8z M9,8c0.6,0,1,0.4,1,1s-0.4,1-1,1S8,9.6,8,9S8.4,8,9,8z M12,8
	c0.6,0,1,0.4,1,1s-0.4,1-1,1s-1-0.4-1-1S11.4,8,12,8z"/>
</svg>
