<?xml version="1.0" encoding="utf-8"?>
<!-- Generator: Adobe Illustrator 25.0.1, SVG Export Plug-In . SVG Version: 6.00 Build 0)  -->
<svg version="1.1" id="图层_1" xmlns="http://www.w3.org/2000/svg" xmlns:xlink="http://www.w3.org/1999/xlink" x="0px" y="0px"
	 viewBox="0 0 18 18" style="enable-background:new 0 0 18 18;" xml:space="preserve">
<path id="theme_color" d="M7,6.5C7,6.8,6.8,7,6.5,7S6,6.8,6,6.5v-4C6,1.7,6.7,1,7.5,1h4C12.3,1,13,1.7,13,2.5v4
	C13,7.7,14.2,9,15.5,9c0.4,0,0.8,0.2,1.1,0.5c0.5,0.6,0.5,1.5-0.1,2.1c0,0,0,0,0,0l-6,5.1c-0.6,0.5-1.4,0.5-2,0l-6-5.1
	C2.2,11.3,2,10.9,2,10.5C2,9.7,2.7,9,3.5,9h3.6c0.3,0,0.5,0.2,0.5,0.5S7.4,10,7.1,10H3.5C3.2,10,3,10.2,3,10.5c0,0,0,0,0,0
	c0,0.1,0.1,0.3,0.2,0.3l6,5.1c0.2,0.2,0.5,0.2,0.6,0l6-5.1c0.2-0.2,0.2-0.5,0-0.6c0,0,0,0,0,0c-0.1-0.1-0.2-0.2-0.4-0.2
	C13.7,10,12,8.3,12,6.4v-4C12,2.2,11.8,2,11.5,2h-4C7.2,2,7,2.2,7,2.5c0,0,0,0,0,0L7,6.5L7,6.5z"/>
</svg>
