<?xml version="1.0" encoding="utf-8"?>
<!-- Generator: Adobe Illustrator 25.0.1, SVG Export Plug-In . SVG Version: 6.00 Build 0)  -->
<svg version="1.1" id="图层_1" xmlns="http://www.w3.org/2000/svg" xmlns:xlink="http://www.w3.org/1999/xlink" x="0px" y="0px"
	 viewBox="0 0 18 18" style="enable-background:new 0 0 18 18;" xml:space="preserve">
<style type="text/css">
	.st0{fill:#FFFFFF;}
</style>
<g id="theme_color">
	<path id="Path-16-Copy" class="st0" d="M11.2,13.1c0.1-0.1,0.8-0.8,1-0.9c0.5-0.5,1-1,1.5-1.4c0.8-0.9,1.5-1.7,1.9-2.5
		C15.8,7.7,16,7.1,16,6.6C16,4.3,14.6,3,13,3c-0.8,0-1.4,0.2-2,0.6c-0.2,0.2-0.5,0.1-0.7-0.1c-0.2-0.2-0.1-0.5,0.1-0.7
		C11.1,2.3,12,2,13,2c2.2,0,4,1.7,4,4.6c0,0.7-0.2,1.4-0.6,2.1c-0.5,0.9-1.2,1.7-2,2.7c-0.5,0.5-1,1-1.5,1.5
		c-0.1,0.1-0.8,0.8-0.9,0.8c-0.6,0.6-2,1.8-2.3,2c-0.4,0.3-0.8,0.3-1.1,0c-0.1-0.1-0.1-0.1-0.2-0.2c-0.1-0.1-0.2-0.2-0.4-0.3
		c-0.4-0.4-0.9-0.8-1.6-1.5c-0.2-0.2-0.9-0.8-1-0.9c-0.5-0.4-0.9-0.8-1.2-1.2C2.2,10,1.2,8.5,1,6.9c0-0.2,0-0.3,0-0.5
		c0-2.8,1.9-4.4,4-4.4c1.3,0,2.3,0.4,3.2,1.1c0.5,0.4,1.4,1.3,2.6,2.7c0.2,0.2,0.2,0.5-0.1,0.7c-0.2,0.2-0.5,0.2-0.7-0.1
		C8.8,5.2,8,4.4,7.5,4C6.8,3.4,6,3.1,5,3.1c-1.6,0-3,1.2-3,3.4c0,0.1,0,0.2,0,0.3C2.2,8.1,3.1,9.5,4.7,11c0.4,0.4,0.7,0.7,1.2,1.1
		c0.1,0.1,0.8,0.7,1,0.9c0.7,0.6,1.2,1.1,1.6,1.4c0.1,0.1,0.3,0.2,0.4,0.3c0,0,0.1,0.1,0.1,0.1C9.3,14.8,10.6,13.6,11.2,13.1z"/>
</g>
</svg>
