<?xml version="1.0" encoding="utf-8"?>
<!-- Generator: Adobe Illustrator 25.0.1, SVG Export Plug-In . SVG Version: 6.00 Build 0)  -->
<svg version="1.1" id="图层_1" xmlns="http://www.w3.org/2000/svg" xmlns:xlink="http://www.w3.org/1999/xlink" x="0px" y="0px"
	 viewBox="0 0 18 18" style="enable-background:new 0 0 18 18;" xml:space="preserve">
<style type="text/css">
	.st0{fill-rule:evenodd;clip-rule:evenodd;}
</style>
<path id="theme_color" class="st0" d="M4.3,9.8l10.1,7c0.5,0.3,1.1,0.2,1.4-0.3c0.1-0.2,0.2-0.4,0.2-0.6V2c0-0.6-0.4-1-1-1
	c-0.2,0-0.4,0.1-0.6,0.2l-10.1,7C3.9,8.5,3.7,9.1,4.1,9.6C4.1,9.7,4.2,9.8,4.3,9.8z M2,1.1c-0.6,0-1,0.4-1,1l0,0v13.8
	c0,0.6,0.4,1,1,1s1-0.4,1-1V2.1C3,1.6,2.6,1.1,2,1.1z"/>
</svg>
