<?xml version="1.0" encoding="utf-8"?>
<!-- Generator: Adobe Illustrator 25.0.1, SVG Export Plug-In . SVG Version: 6.00 Build 0)  -->
<svg version="1.1" id="图层_1" xmlns="http://www.w3.org/2000/svg" xmlns:xlink="http://www.w3.org/1999/xlink" x="0px" y="0px"
	 viewBox="0 0 18 18" style="enable-background:new 0 0 18 18;" xml:space="preserve">
<path id="theme_color" d="M10,14h2.5C15,14,17,12,17,9.5S15,5,12.5,5H11V4h1.5c3,0,5.5,2.5,5.5,5.5c0,3-2.4,5.4-5.3,5.5l2.3,2h-1.5
	L10,14L10,14z M9,5H6.5C4,5,2,7,2,9.5S4,14,6.5,14H8v1H6.5C3.5,15,1,12.5,1,9.5c0-3,2.4-5.4,5.3-5.5L4,2h1.5L9,5L9,5z"/>
</svg>
