<?xml version="1.0" encoding="utf-8"?>
<!-- Generator: Adobe Illustrator 25.0.1, SVG Export Plug-In . SVG Version: 6.00 Build 0)  -->
<svg version="1.1" id="图层_1" xmlns="http://www.w3.org/2000/svg" xmlns:xlink="http://www.w3.org/1999/xlink" x="0px" y="0px"
	 viewBox="0 0 18 18" style="enable-background:new 0 0 18 18;" xml:space="preserve">
<style type="text/css">
	.st0{fill-rule:evenodd;clip-rule:evenodd;}
</style>
<path id="theme_color" class="st0" d="M15.7,13H17l-3.5,3H12l2.3-2c-2.1,0-3.6-1-4.5-2.5c0,0-0.1-0.1-0.1-0.2l0.6-0.9
	c0.2,0.3,0.3,0.6,0.4,0.6c0.8,1.2,2.1,2,3.9,2L15.7,13C15.7,13,15.7,13,15.7,13z M15.7,5h-1.3c-1.8,0-3.1,1.2-4.2,3.2
	c-0.7,1.1-1.3,2.2-2,3.4c-1,1.5-2.5,2.5-4.8,2.5C3.1,14,2,14,2,14v-1c0.5,0,1,0,1.5,0c1.9,0.1,3.1-0.8,3.9-2c0.1-0.2,1.8-3,2-3.3
	c1.3-2.2,2.7-3.6,4.9-3.7L12,2h1.5L17,5H15.7z M8.5,7.5l-0.6,1C7.9,8.3,7.8,8.3,7.8,8.2C6.6,6.2,5.3,5,3.5,5H2V4h1.5
	C5.8,4,7.2,5.3,8.5,7.5z"/>
</svg>
