<?xml version="1.0" encoding="utf-8"?>
<!-- Generator: Adobe Illustrator 25.0.1, SVG Export Plug-In . SVG Version: 6.00 Build 0)  -->
<svg version="1.1" id="图层_1" xmlns="http://www.w3.org/2000/svg" xmlns:xlink="http://www.w3.org/1999/xlink" x="0px" y="0px"
	 viewBox="0 0 18 18" style="enable-background:new 0 0 18 18;" xml:space="preserve">
<style type="text/css">
	.st0{fill-rule:evenodd;clip-rule:evenodd;}
</style>
<path id="theme_color" class="st0" d="M13.7,9.8l-10.1,7c-0.5,0.3-1.1,0.2-1.4-0.3C2.1,16.4,2,16.2,2,16V2c0-0.6,0.4-1,1-1
	c0.2,0,0.4,0.1,0.6,0.2l10.1,7c0.5,0.3,0.6,0.9,0.3,1.4C13.9,9.7,13.8,9.8,13.7,9.8z M16,1.1c0.6,0,1,0.4,1,1l0,0v13.8
	c0,0.6-0.4,1-1,1c-0.6,0-1-0.4-1-1V2.1C15,1.6,15.4,1.1,16,1.1z"/>
</svg>
