<?xml version="1.0" encoding="utf-8"?>
<!-- Generator: Adobe Illustrator 25.0.1, SVG Export Plug-In . SVG Version: 6.00 Build 0)  -->
<svg version="1.1" id="图层_1" xmlns="http://www.w3.org/2000/svg" xmlns:xlink="http://www.w3.org/1999/xlink" x="0px" y="0px"
	 viewBox="0 0 18 18" style="enable-background:new 0 0 18 18;" xml:space="preserve">
<style type="text/css">
	.st0{fill-rule:evenodd;clip-rule:evenodd;}
</style>
<desc>Created with Sketch.</desc>
<g id="theme_color">
	<g id="导航控件" transform="translate(-547.000000, -877.000000)">
		<path id="Combined-Shape-Copy-32" class="st0" d="M563.9,883.2c0.2,0.2,0.1,0.5-0.1,0.7c-1,0.7-1.6,1.9-1.6,3.1v3.6
			c0,0,0,0.1,0,0.1c0,0.1,0,0.1,0,0.2c0,1.1-0.9,2-2,2s-2-0.9-2-2s0.9-2,2-2c0.4,0,0.7,0.1,1,0.3l0-2.2c0-1.5,0.7-3,2-3.9
			C563.4,882.9,563.7,883,563.9,883.2z M555.7,891c0.3,0,0.5,0.2,0.5,0.5s-0.2,0.5-0.5,0.5h-6.2c-0.3,0-0.5-0.2-0.5-0.5
			s0.2-0.5,0.5-0.5H555.7z M558.3,886c0.3,0,0.5,0.2,0.5,0.5s-0.2,0.5-0.5,0.5h-8.8c-0.3,0-0.5-0.2-0.5-0.5s0.2-0.5,0.5-0.5H558.3z
			 M561.8,881c0.3,0,0.5,0.2,0.5,0.5s-0.2,0.5-0.5,0.5h-12.3c-0.3,0-0.5-0.2-0.5-0.5s0.2-0.5,0.5-0.5H561.8z"/>
	</g>
</g>
</svg>
