<?xml version="1.0" encoding="utf-8"?>
<!-- Generator: Adobe Illustrator 25.0.1, SVG Export Plug-In . SVG Version: 6.00 Build 0)  -->
<svg version="1.1" id="图层_1" xmlns="http://www.w3.org/2000/svg" xmlns:xlink="http://www.w3.org/1999/xlink" x="0px" y="0px"
	 viewBox="0 0 35 35" style="enable-background:new 0 0 35 35;" xml:space="preserve">
<style type="text/css">
	.st0{fill-rule:evenodd;clip-rule:evenodd;fill:url(#SVGID_1_);}
</style>
<linearGradient id="SVGID_1_" gradientUnits="userSpaceOnUse" x1="-258.4" y1="293.8577" x2="-257.4" y2="293.8577" gradientTransform="matrix(35 0 0 -35 9044 10302.5195)">
	<stop  offset="0" style="stop-color:#1ECC94"/>
	<stop  offset="1" style="stop-color:#20D6C0"/>
</linearGradient>
<path class="st0" d="M17.5,35C7.8,35,0,27.2,0,17.5S7.8,0,17.5,0S35,7.8,35,17.5S27.2,35,17.5,35z M13.5,10c-0.8,0-1.5,0.7-1.5,1.5
	v12c0,0.8,0.7,1.5,1.5,1.5s1.5-0.7,1.5-1.5v-12C15,10.7,14.3,10,13.5,10z M21.5,10c-0.8,0-1.5,0.7-1.5,1.5v12c0,0.8,0.7,1.5,1.5,1.5
	s1.5-0.7,1.5-1.5v-12C23,10.7,22.3,10,21.5,10z"/>
</svg>
