<?xml version="1.0" encoding="utf-8"?>
<!-- Generator: Adobe Illustrator 25.0.1, SVG Export Plug-In . SVG Version: 6.00 Build 0)  -->
<svg version="1.1" id="图层_1" xmlns="http://www.w3.org/2000/svg" xmlns:xlink="http://www.w3.org/1999/xlink" x="0px" y="0px"
	 viewBox="0 0 41 15" style="enable-background:new 0 0 41 15;" xml:space="preserve">
<g id="theme_color">
	<path d="M23.3,10.3L21.9,9l0.7-0.7l1.5,1.3c0.2-0.3,0.4-0.6,0.5-1c0.1-0.4,0.2-0.8,0.2-1.1c0-1-0.4-1.8-1.1-2.5C23,4.3,22.1,4,21,4
		s-1.9,0.3-2.7,1c-0.7,0.7-1.1,1.5-1.1,2.5s0.4,1.8,1.1,2.5c0.7,0.7,1.6,1,2.7,1c0.4,0,0.8-0.1,1.2-0.2C22.7,10.6,23,10.5,23.3,10.3
		z M24.9,10.2l1,0.9l-0.7,0.7l-1-0.9c-0.4,0.3-0.9,0.5-1.5,0.7C22.1,11.9,21.5,12,21,12c-1.3,0-2.5-0.4-3.4-1.3
		c-0.9-0.9-1.4-1.9-1.4-3.2s0.5-2.3,1.4-3.2C18.6,3.4,19.7,3,21,3c1.3,0,2.5,0.4,3.4,1.3c0.9,0.9,1.4,1.9,1.4,3.2
		c0,0.4-0.1,0.9-0.3,1.4C25.4,9.5,25.1,9.9,24.9,10.2z M2.3,1C2,1,1.7,1.1,1.5,1.3C1.3,1.5,1.2,1.7,1.2,2v11c0,0.3,0.1,0.5,0.3,0.7
		C1.7,13.9,2,14,2.3,14h36.4c0.3,0,0.5-0.1,0.8-0.3c0.2-0.2,0.3-0.4,0.3-0.7V2c0-0.3-0.1-0.5-0.3-0.7C39.3,1.1,39,1,38.7,1H2.3z
		 M2.3,0h36.4c0.6,0,1.1,0.2,1.5,0.6C40.6,1,40.8,1.4,40.8,2v11c0,0.6-0.2,1-0.6,1.4c-0.4,0.4-0.9,0.6-1.5,0.6H2.3
		c-0.6,0-1.1-0.2-1.5-0.6C0.4,14,0.2,13.6,0.2,13V2c0-0.6,0.2-1,0.6-1.4C1.2,0.2,1.7,0,2.3,0z M33.1,6.9l-2.6,2.5
		c-0.1,0.1-0.2,0.1-0.4,0.1c-0.1,0-0.3-0.1-0.4-0.1S29.6,9.1,29.6,9c0-0.1,0.1-0.3,0.2-0.4l3.4-3.2l3.4,3.2c0.1,0.1,0.2,0.2,0.2,0.4
		c0,0.1-0.1,0.3-0.2,0.4c-0.1,0.1-0.2,0.1-0.4,0.1c-0.1,0-0.3-0.1-0.4-0.1L33.1,6.9z M9.8,7c1.2,0,2.2,0.2,3,0.7
		c0.8,0.5,1.2,1.1,1.2,1.8s-0.4,1.3-1.2,1.8C12,11.8,11,12,9.8,12c-1.2,0-2.2-0.2-3-0.7c-0.8-0.5-1.3-1.1-1.3-1.8h1.1
		c0,0.4,0.3,0.7,0.9,1C8.2,10.8,8.9,11,9.8,11c0.9,0,1.6-0.2,2.3-0.5c0.6-0.3,0.9-0.7,0.9-1s-0.3-0.7-0.9-1C11.4,8.2,10.7,8,9.8,8
		c-1.2,0-2.2-0.2-3-0.7C5.9,6.8,5.5,6.2,5.5,5.5s0.4-1.3,1.3-1.8C7.6,3.2,8.6,3,9.8,3c1.2,0,2.2,0.2,3,0.7c0.8,0.5,1.2,1.1,1.2,1.8
		H13c0-0.4-0.3-0.7-0.9-1C11.4,4.2,10.7,4,9.8,4C8.9,4,8.2,4.2,7.5,4.5c-0.6,0.3-0.9,0.7-0.9,1s0.3,0.7,0.9,1C8.2,6.8,8.9,7,9.8,7z"
		/>
</g>
</svg>
