<?xml version="1.0" encoding="utf-8"?>
<!-- Generator: Adobe Illustrator 25.0.1, SVG Export Plug-In . SVG Version: 6.00 Build 0)  -->
<svg version="1.1" id="图层_1" xmlns="http://www.w3.org/2000/svg" xmlns:xlink="http://www.w3.org/1999/xlink" x="0px" y="0px"
	 viewBox="0 0 18 18" style="enable-background:new 0 0 18 18;" xml:space="preserve">
<path id="theme_color" d="M2,12h3.2L9,14.6V3.4L5.2,6H2V12z M4.9,5l4.3-2.9C9.5,1.9,9.8,2,9.9,2.2C10,2.3,10,2.4,10,2.5v13
	c0,0.3-0.2,0.5-0.5,0.5c-0.1,0-0.2,0-0.3-0.1L4.9,13H1.5C1.2,13,1,12.8,1,12.5v-7C1,5.2,1.2,5,1.5,5H4.9L4.9,5z M15.7,9l2.1,2.1l0,0
	c0.2,0.2,0.2,0.5,0,0.7l0,0c-0.2,0.2-0.5,0.2-0.7,0L15,9.7l-2.1,2.1c-0.2,0.2-0.5,0.2-0.7,0l0,0c-0.2-0.2-0.2-0.5,0-0.7L14.3,9
	l-2.1-2.1v0c-0.2-0.2-0.2-0.5,0-0.7l0,0c0.2-0.2,0.5-0.2,0.7,0L15,8.3l2.1-2.1c0.2-0.2,0.5-0.2,0.7,0l0,0c0.2,0.2,0.2,0.5,0,0.7
	C17.9,6.9,15.7,9,15.7,9z"/>
</svg>
