<?xml version="1.0" encoding="utf-8"?>
<!-- Generator: Adobe Illustrator 25.0.1, SVG Export Plug-In . SVG Version: 6.00 Build 0)  -->
<svg version="1.1" id="图层_1" xmlns="http://www.w3.org/2000/svg" xmlns:xlink="http://www.w3.org/1999/xlink" x="0px" y="0px"
	 viewBox="0 0 18 18" style="enable-background:new 0 0 18 18;" xml:space="preserve">
<path id="theme_color" d="M3,12h3.2l3.8,2.6V3.4L6.2,6H3V12z M5.9,5l4.3-2.9c0.2-0.1,0.5-0.1,0.7,0.1C11,2.3,11,2.4,11,2.5v13
	c0,0.3-0.2,0.5-0.5,0.5c0,0,0,0,0,0c-0.1,0-0.2,0-0.3-0.1L5.9,13H2.5C2.2,13,2,12.8,2,12.5c0,0,0,0,0,0v-7C2,5.2,2.2,5,2.5,5H5.9z
	 M12.8,4.6c-0.2-0.1-0.3-0.4-0.2-0.7c0,0,0,0,0,0c0.1-0.2,0.4-0.3,0.7-0.2C15.7,5.1,17,7,17,9.5c0,2.4-1.2,4.4-3.7,6
	c-0.2,0.1-0.5,0.1-0.7-0.2c-0.1-0.2-0.1-0.5,0.1-0.7c0,0,0,0,0,0c2.2-1.4,3.2-3.1,3.2-5.1C16,7.4,15,5.8,12.8,4.6z"/>
</svg>
