<?xml version="1.0" encoding="utf-8"?>
<!-- Generator: Adobe Illustrator 25.0.1, SVG Export Plug-In . SVG Version: 6.00 Build 0)  -->
<svg version="1.1" id="theme_color" xmlns="http://www.w3.org/2000/svg" xmlns:xlink="http://www.w3.org/1999/xlink" x="0px"
	 y="0px" viewBox="0 0 28 20" style="enable-background:new 0 0 28 20;" xml:space="preserve">
<style type="text/css">
	.st0{fill:#1AE0A3;}
	.st1{enable-background:new    ;}
	.st2{fill:#FFFFFF;}
</style>
<g>
	<path class="st0" d="M0,4v16h11.5c5.1,0,8.7-2.5,10.6-7.5S26,3.3,28,0H4C1.8,0,0,1.8,0,4z"/>
	<g class="st1">
		<path class="st2" d="M5.6,10.4c-0.1-0.3-0.2-0.5-0.3-0.7C6.5,8,7.5,6.2,8,4.3l0.7,0.2C8.4,5.4,8,6.4,7.5,7.3v8.2H6.9v-7
			C6.5,9.1,6.1,9.8,5.6,10.4z M11.3,4.3h0.6c0,1.2,0,2.3-0.1,3.2h4.6V8h-3.2v5.7c0,0.5,0.2,0.7,0.8,0.7h0.8c0.6,0,0.9-0.3,1-0.9
			c0.1-0.4,0.1-1,0.2-1.7c0.2,0.1,0.4,0.1,0.6,0.2c-0.1,0.7-0.1,1.3-0.2,1.8c-0.1,0.8-0.7,1.2-1.5,1.2h-1c-0.9,0-1.4-0.4-1.4-1.3V8
			h-0.8c0,0.1,0,0.2,0,0.3c0,0.1,0,0.2,0,0.3c-0.1,2.6-1.2,4.8-3.1,6.7c-0.2-0.2-0.4-0.4-0.5-0.5c1.9-1.8,2.9-3.9,3-6.3
			c0-0.2,0-0.4,0-0.6H8.6V7.4h2.6C11.3,6.5,11.3,5.4,11.3,4.3z M15,6.5c-0.6-0.5-1.2-1-1.8-1.5l0.4-0.4c0.5,0.4,1.1,0.8,1.8,1.4
			L15,6.5z"/>
	</g>
</g>
</svg>
