<?xml version="1.0" standalone="no"?>
<!DOCTYPE svg PUBLIC "-//W3C//DTD SVG 1.1//EN" "http://www.w3.org/Graphics/SVG/1.1/DTD/svg11.dtd" >
<svg xmlns="http://www.w3.org/2000/svg" xmlns:xlink="http://www.w3.org/1999/xlink" version="1.1" viewBox="0 -64 1024 1024">
  <g id="theme_color" transform="matrix(1 0 0 -1 0 960)">
   <path fill="currentColor"
d="M388 795q-10 -10 -20.5 -9.5t-19.5 9t-9 20t8 20.5l82 81q39 39 103 65t117 26q130 0 221.5 -91.5t91.5 -221.5q0 -53 -26.5 -117.5t-63.5 -103.5l-80 -80q-10 -10 -20 -8q-11 0 -21 7.5t-10 20.5q0 11 10 20l81 81q30 30 52 83t22 98q0 106 -74 181t-182 75
q-44 0 -96 -22.5t-84 -52.5zM630.5 272.5q8.5 -8.5 8.5 -20t-8 -20.5l-80 -80q-39 -38 -102.5 -63t-116.5 -25q-130 0 -221.5 92t-91.5 219q0 53 26.5 117.5t62.5 102.5l79 78q10 10 20 10q11 0 19.5 -8.5t8.5 -20.5q0 -11 -7 -21l-80 -79q-30 -30 -52.5 -83.5t-22.5 -96.5
q0 -106 75 -181t181 -75q44 0 97 21.5t84 52.5l80 81q10 10 21 9t19.5 -9.5zM670.5 715.5q8.5 -8.5 8.5 -20.5t-8 -20l-322 -322q-10 -10 -21 -9t-19.5 9.5t-8.5 20t9 19.5l322 322q10 10 20.5 9.5t19 -9z" />
  </g>

</svg>
