<?xml version="1.0" encoding="utf-8"?>
<!-- Generator: Adobe Illustrator 25.0.1, SVG Export Plug-In . SVG Version: 6.00 Build 0)  -->
<svg version="1.1" id="图层_1" xmlns="http://www.w3.org/2000/svg" xmlns:xlink="http://www.w3.org/1999/xlink" x="0px" y="0px"
	 viewBox="0 0 18 18" style="enable-background:new 0 0 18 18;" xml:space="preserve">
<path id="theme_color" d="M9.9,8.1h3c0.2,0,0.4,0.2,0.4,0.4c0,0.2-0.2,0.4-0.4,0.4l0,0h-3v3c0,0.2-0.2,0.4-0.4,0.4
	c-0.2,0-0.4-0.2-0.4-0.4v-3H6c-0.2,0-0.4-0.2-0.4-0.4c0-0.2,0.2-0.4,0.4-0.4h3V5c0-0.2,0.2-0.4,0.4-0.4c0.2,0,0.4,0.2,0.4,0.4
	C9.9,5,9.9,8.1,9.9,8.1z M4.7,2.9c-0.5,0-0.9,0.4-0.9,0.9v9.5c0,0.5,0.4,0.9,0.9,0.9h9.5c0.5,0,0.9-0.4,0.9-0.9V3.7
	c0-0.5-0.4-0.9-0.9-0.9C14.3,2.9,4.7,2.9,4.7,2.9z M4.7,2h9.5c1,0,1.7,0.8,1.7,1.7v9.5c0,1-0.8,1.7-1.7,1.7H4.7
	c-1,0-1.7-0.8-1.7-1.7V3.7C3,2.8,3.8,2,4.7,2z"/>
</svg>
