<?xml version="1.0" encoding="utf-8"?>
<!-- Generator: Adobe Illustrator 25.0.1, SVG Export Plug-In . SVG Version: 6.00 Build 0)  -->
<svg version="1.1" id="图层_1" xmlns="http://www.w3.org/2000/svg" xmlns:xlink="http://www.w3.org/1999/xlink" x="0px" y="0px"
	 viewBox="0 0 89 30" style="enable-background:new 0 0 89 30;" xml:space="preserve">
<style type="text/css">
	.st0{fill:#E5B046;}
</style>
<g id="页面-1">
	<g id="hires-icon" transform="translate(-405.000000, -434.000000)">
		<g id="hires-黄色" transform="translate(405.000000, 434.000000)">
			<path id="形状结合" class="st0" d="M83.6,0c3,0,5.4,2.4,5.4,5.5v19.1c0,3-2.4,5.5-5.4,5.5H5.4c-3,0-5.4-2.4-5.4-5.5V5.5
				C0,2.4,2.4,0,5.4,0H83.6z M83.6,2.7H5.4c-1.5,0-2.7,1.2-2.7,2.7v19.1c0,1.5,1.2,2.7,2.7,2.7h78.1c1.5,0,2.7-1.2,2.7-2.7V5.5
				C86.3,3.9,85.1,2.7,83.6,2.7z M61.8,10.9c1.9,0,3.3,0.6,4.3,1.8c0.9,1,1,2.9,1,4.8l0,0.3h-8.2c0.1,1,0.4,1.3,0.9,1.8
				c0.5,0.5,1.2,0.8,2.1,0.8c0.8,0,1.4-0.2,1.9-0.5c0.3-0.2,0.6-0.3,0.9-0.7l0.1-0.2h2.4c-0.3,1-0.6,1.4-1.4,2.1
				c-1,0.8-2.3,1.2-3.8,1.2c-1.7,0-3.1-0.5-4.1-1.5c-1.1-1-1.6-2.4-1.6-4.2c0-1.6,0.5-2.9,1.5-4C58.7,11.4,60,10.9,61.8,10.9z
				 M74.8,10.9c2.9,0,4.6,1.1,4.9,3.2l0,0.2h-2.5c-0.2-0.5-0.4-0.9-0.8-1.1c-0.3-0.2-0.8-0.2-1.5-0.2l-0.2,0c-0.7,0-1.2,0-1.6,0.2
				c-0.4,0.2-0.6,0.5-0.6,0.9c0,0.3,0.3,0.6,0.9,0.9c0.4,0.1,1.1,0.4,2.3,0.6c1.3,0.3,2.3,0.6,2.9,1c0.9,0.5,1.4,1.3,1.4,2.3
				c0,2.3-1.7,3.4-5.2,3.4c-3.1,0-4.9-1.5-5.2-3.9l0-0.2l2.6-0.3c0.1,0.7,0.5,1.5,0.9,1.8c0.4,0.3,1.2,0.4,2,0.4
				c1.8,0,2.2-0.1,2.2-0.9c0-0.5-0.3-0.9-1-1.2c-0.4-0.2-1.1-0.4-2.3-0.6c-1.4-0.3-2.3-0.6-2.9-0.9c-0.9-0.5-1.3-1.3-1.3-2.2
				c0-1,0.4-1.8,1.3-2.3C72.3,11.2,73.4,10.9,74.8,10.9z M10.9,7.9L11,13h8l-0.1-5.1l2.9,0V22L19,22v-6h-8v6H8L7.9,7.9H10.9z
				 M48,7.9c1.5,0,2.7,0.3,3.6,0.9c0.9,0.7,1.4,1.7,1.4,3.1c0,0.7-0.2,1.4-0.6,2c-0.4,0.6-1,1-1.7,1.2l-0.2,0.1v0
				c1.2,0.3,2,1,2.2,2.3l0,0.2l0.3,2.3c0.1,0.8,0.3,1.4,0.8,1.9l0.1,0.2h-3.4c-0.4-0.4-0.5-2-0.6-2.8c-0.3-1.2-0.7-2-0.9-2.2
				c-0.3-0.2-1.8-0.2-4.7,0L44,17v5l-3.1,0L41,7.9H48z M27.8,12.9V22h-2.7v-9.1H27.8z M37,13v3h-6v-3H37z M61.9,13.5
				c-0.8,0-1.7,0.1-2.2,0.6c-0.4,0.4-0.7,0.6-0.8,1.3l0,0.2l5.9,0.4c0-2.2-1.3-2.5-2.6-2.5L61.9,13.5z M44.4,10.9l-0.3,0V14
				c1.4,0.1,2.5,0.1,3.4,0.1l0.4,0c1,0,1.6-0.1,1.7-0.2c0.5-0.4,0.8-0.7,0.8-1.4c0-0.1-0.3-1-0.8-1.3C49.3,10.9,47.5,10.8,44.4,10.9
				z M26.4,7.9c0.5,0,0.9,0.2,1.3,0.5C28,8.7,28.2,9,28.2,9.5s-0.2,0.9-0.5,1.2c-0.3,0.3-0.8,0.5-1.3,0.5s-0.9-0.2-1.3-0.5
				c-0.3-0.3-0.5-0.7-0.5-1.2s0.2-0.9,0.5-1.2C25.5,8.1,25.9,7.9,26.4,7.9z"/>
		</g>
	</g>
</g>
</svg>
