<?xml version="1.0" encoding="utf-8"?>
<!-- Generator: Adobe Illustrator 25.0.1, SVG Export Plug-In . SVG Version: 6.00 Build 0)  -->
<svg version="1.1" id="图层_1" xmlns="http://www.w3.org/2000/svg" xmlns:xlink="http://www.w3.org/1999/xlink" x="0px" y="0px"
	 viewBox="0 0 18 11" style="enable-background:new 0 0 18 11;" xml:space="preserve">
<style type="text/css">
	.st0{fill:none;stroke:#FF6600;}
	.st1{fill:#FF6600;}
</style>
<g>
	<path class="st0" d="M2.5,0.5h13c1.1,0,2,0.9,2,2v6c0,1.1-0.9,2-2,2h-13c-1.1,0-2-0.9-2-2v-6C0.5,1.4,1.4,0.5,2.5,0.5z"/>
	<path class="st1" d="M12.5,7.2l-0.9-0.9l0.7-0.7l1,1c0.6-0.8,0.5-2-0.3-2.6s-2-0.5-2.6,0.3s-0.5,2,0.3,2.6
		C11.2,7.4,11.9,7.5,12.5,7.2L12.5,7.2z M14,7.3l0.5,0.5l-0.7,0.7L13.3,8c-1.4,0.8-3.1,0.3-3.9-1.1S9.1,3.8,10.4,3s3.1-0.3,3.9,1.1
		C14.9,5.1,14.8,6.4,14,7.3z M5.5,6C4.1,6,3,5.2,3,4.2s1.1-1.8,2.5-1.8S8,3.3,8,4.2H7c0-0.3-0.6-0.8-1.5-0.8S4,3.9,4,4.2
		S4.6,5,5.5,5C6.9,5,8,5.8,8,6.7S6.9,8.5,5.5,8.5S3,7.7,3,6.7h1c0,0.3,0.6,0.8,1.5,0.8S7,7.1,7,6.7S6.4,6,5.5,6z M5.5,5v1V5z M5.5,5
		v1V5z"/>
</g>
</svg>
