<?xml version="1.0" encoding="utf-8"?>
<!-- Generator: Adobe Illustrator 25.0.1, SVG Export Plug-In . SVG Version: 6.00 Build 0)  -->
<svg version="1.1" id="图层_1" xmlns="http://www.w3.org/2000/svg" xmlns:xlink="http://www.w3.org/1999/xlink" x="0px" y="0px"
	 viewBox="0 0 18 11" style="enable-background:new 0 0 18 11;" xml:space="preserve">
<style type="text/css">
	.st0{fill:#1ECC94;}
</style>
<path id="theme_color" class="st0" d="M12,3h1.2c1,0,1.8,0.8,1.8,1.8s-0.8,1.8-1.8,1.8H12V8h-1V3H12z M12,4v1.6h1.2
	c0.4,0,0.8-0.4,0.8-0.8S13.6,4,13.2,4c0,0,0,0,0,0H12z M2,1C1.4,1,1,1.4,1,2v7c0,0.6,0.4,1,1,1h14c0.6,0,1-0.4,1-1V2
	c0-0.6-0.4-1-1-1H2z M2,0h14c1.1,0,2,0.9,2,2v7c0,1.1-0.9,2-2,2H2c-1.1,0-2-0.9-2-2V2C0,0.9,0.9,0,2,0z M3,3h1.1l1.7,4.1L7.4,3h1.1
	l-2,5H5L3,3z M9,3h1v5H9V3z"/>
</svg>
