<?xml version="1.0" encoding="utf-8"?>
<!-- Generator: Adobe Illustrator 25.0.1, SVG Export Plug-In . SVG Version: 6.00 Build 0)  -->
<svg version="1.1" id="图层_1" xmlns="http://www.w3.org/2000/svg" xmlns:xlink="http://www.w3.org/1999/xlink" x="0px" y="0px"
	 viewBox="0 0 18 11" style="enable-background:new 0 0 18 11;" xml:space="preserve">
<style type="text/css">
	.st0{fill:#1ECC94;}
</style>
<path id="theme_color" class="st0" d="M2,1C1.4,1,1,1.4,1,2v7c0,0.6,0.4,1,1,1h14c0.6,0,1-0.4,1-1V2c0-0.6-0.4-1-1-1H2z M2,0h14
	c1.1,0,2,0.9,2,2v7c0,1.1-0.9,2-2,2H2c-1.1,0-2-0.9-2-2V2C0,0.9,0.9,0,2,0z M4,5h3V3h1v5H7V6H4v2H3V3h1V5z M12.5,7.2l-0.9-0.9
	l0.7-0.7l1,1c0.6-0.8,0.5-2-0.3-2.6s-2-0.5-2.6,0.3s-0.5,2,0.3,2.6C11.2,7.4,11.9,7.5,12.5,7.2L12.5,7.2z M14,7.3l0.5,0.5l-0.7,0.7
	L13.3,8c-1.4,0.8-3.1,0.3-3.9-1.1S9.1,3.8,10.4,3s3.1-0.3,3.9,1.1C14.9,5.1,14.8,6.4,14,7.3z"/>
</svg>
