<?xml version="1.0" encoding="utf-8"?>
<!-- Generator: Adobe Illustrator 25.0.1, SVG Export Plug-In . SVG Version: 6.00 Build 0)  -->
<svg version="1.1" id="图层_1" xmlns="http://www.w3.org/2000/svg" xmlns:xlink="http://www.w3.org/1999/xlink" x="0px" y="0px"
	 viewBox="0 0 89 24" style="enable-background:new 0 0 89 24;" xml:space="preserve">
<style type="text/css">
	.st0{fill:#FFFFFF;}
	.st1{fill:#FFDC00;}
	.st2{fill:url(#SVGID_1_);}
</style>
<g>
	<path class="st0" d="M16.6,1.3c-2.7,1.3-5.7,1.6-8.3,1.6c-0.3,0-0.6,0.3-0.6,0.6c0,0.1,0,0.2,0.1,0.3l1,1.7l4.8,8.3
		c-0.6-0.1-1.2-0.2-1.8-0.1c-2.9,0.3-5.2,2.5-4.9,5c0.2,2.5,2.8,4.3,5.7,4.1s5.2-2.5,4.9-5c-0.1-0.7-0.3-1.3-0.6-1.8l-4.9-8.4
		c2.4-1.3,5.4-3.9,6.6-7.4l-0.1,0l0.1-0.1l0.4,2.4c2.9,2.1,4.9,5.6,4.9,9.5c0,6.5-5.3,11.8-11.8,11.8S0.2,18.6,0.2,12.1
		c0-6.5,5.3-11.8,11.8-11.8C13.6,0.3,15.1,0.7,16.6,1.3L16.6,1.3z"/>
	<g>
		<path class="st1" d="M18.8,2.6l-0.4-2.4l-1.3,1.4c-1.6-0.8-3.4-1.2-5.2-1.2C5.4,0.3,0.2,5.6,0.2,12.1s5.3,11.8,11.8,11.8
			s11.8-5.3,11.8-11.8C23.7,8.2,21.8,4.7,18.8,2.6z"/>
		
			<linearGradient id="SVGID_1_" gradientUnits="userSpaceOnUse" x1="-218.139" y1="283.9317" x2="-218.139" y2="282.9317" gradientTransform="matrix(11.7382 0 0 -22.5882 2573.1289 6413.6519)">
			<stop  offset="0" style="stop-color:#00CBCB"/>
			<stop  offset="0.1617" style="stop-color:#0FC8B2"/>
			<stop  offset="0.4497" style="stop-color:#28C48B"/>
			<stop  offset="0.6" style="stop-color:#31C27C"/>
			<stop  offset="0.7" style="stop-color:#21C077"/>
			<stop  offset="0.8857" style="stop-color:#09BD71"/>
			<stop  offset="1" style="stop-color:#00BC6E"/>
		</linearGradient>
		<path class="st2" d="M16.7,15.9l-4.9-8.4c2.4-1.3,5.4-3.9,6.6-7.4c-3,2.2-6.9,2.8-10.2,2.7c-0.3,0-0.6,0.3-0.6,0.6
			c0,0.1,0,0.2,0.1,0.3l1,1.7l4.8,8.3c-0.6-0.1-1.2-0.2-1.8-0.1c-2.9,0.3-5.2,2.5-4.9,5c0.2,2.5,2.8,4.3,5.7,4.1s5.2-2.5,4.9-5
			C17.3,17.1,17.1,16.4,16.7,15.9L16.7,15.9z"/>
	</g>
	<g id="theme_color">
		<path class="st0" d="M72.8,5.1h-5.3L67.2,4h-2l0.4,1.1h-5.5v1.4h12.7V5.1z M71.4,11.6H60.7V19h11.6v-6.6
			C72.2,12,71.9,11.6,71.4,11.6z M70.5,17.5h-8.1V16h8.1V17.5z M70.5,14.6h-8.1v-1.5h7.7c0.2,0,0.4,0.2,0.4,0.4V14.6z M71.2,7.2
			h-1.7l-0.9,2h-4.2l-0.9-2h-1.7l0.9,2H59v1.4h14.9V9.2h-3.6L71.2,7.2z M75.1,18.3H77l2.1-4.9h-1.9L75.1,18.3z M86.7,13.4h-1.9
			l2.1,4.9h1.9L86.7,13.4z"/>
		<path class="st0" d="M88.1,12.2v-1.5h-5V7.3L81.5,7v3.8H78c-0.2,0-0.4-0.2-0.4-0.4c0,0,0,0,0,0L78,6l9.4-0.3V4.3L76.5,4.6h-0.2
			l-0.6,6.7c0,0.5,0.3,0.9,0.8,0.9h5v5.1h-2l0.6,1.7h3v-6.8C83.1,12.2,88.1,12.2,88.1,12.2z M42.5,13.8V9.2c0-2.9-2.4-5.2-5.3-5.2
			h-1.8c-2.9,0-5.3,2.3-5.3,5.2v4.6c0,2.9,2.4,5.2,5.3,5.2h1.8c1.1,0,2.1-0.3,3-0.9l0.7,0.9H43l-1.5-2.1
			C42.2,16,42.5,14.9,42.5,13.8z M37.3,17.3h-1.8c-2,0-3.6-1.6-3.6-3.5V9.2c0-1.9,1.6-3.5,3.6-3.5h1.8c2,0,3.6,1.6,3.6,3.5v4.6
			c0,0.6-0.2,1.1-0.4,1.6l-1.6-2.2h-2.1l2.5,3.5C38.7,17.1,38,17.3,37.3,17.3z M56.8,13.8V9.2c0-2.9-2.4-5.2-5.3-5.2h-1.8
			c-2.9,0-5.3,2.3-5.3,5.2v4.6c0,2.9,2.4,5.2,5.3,5.2h1.8c1.1,0,2.1-0.3,3-0.9l0.7,0.9h2.1l-1.5-2.1C56.4,16,56.8,14.9,56.8,13.8z
			 M51.5,17.3h-1.8c-2,0-3.6-1.6-3.6-3.5V9.2c0-1.9,1.6-3.5,3.6-3.5h1.8c2,0,3.6,1.6,3.6,3.5v4.6c0,0.6-0.2,1.1-0.4,1.6l-1.6-2.2H51
			l2.5,3.5C53,17.1,52.2,17.3,51.5,17.3z"/>
	</g>
</g>
</svg>
