<?xml version="1.0" encoding="utf-8"?>
<!-- Generator: Adobe Illustrator 25.0.1, SVG Export Plug-In . SVG Version: 6.00 Build 0)  -->
<svg version="1.1" id="图层_1" xmlns="http://www.w3.org/2000/svg" xmlns:xlink="http://www.w3.org/1999/xlink" x="0px" y="0px"
	 viewBox="0 0 18 18" style="enable-background:new 0 0 18 18;" xml:space="preserve">
<style type="text/css">
	.st0{fill-rule:evenodd;clip-rule:evenodd;}
</style>
<path id="theme_color" class="st0" d="M11.9,7.9H15c0.6,0,1,0.4,1,1c0,0.3-0.1,0.5-0.3,0.7l-6,6c-0.4,0.4-1,0.4-1.4,0c0,0,0,0,0,0
	l-6-6c-0.4-0.4-0.4-1,0-1.4C2.5,8.1,2.7,7.9,3,7.9h3.1V2c0-0.6,0.4-1,1-1h3.8c0.6,0,1,0.4,1,1c0,0,0,0,0,0L11.9,7.9L11.9,7.9z"/>
</svg>
