<?xml version="1.0" encoding="utf-8"?>
<!-- Generator: Adobe Illustrator 25.0.1, SVG Export Plug-In . SVG Version: 6.00 Build 0)  -->
<svg version="1.1" id="图层_1" xmlns="http://www.w3.org/2000/svg" xmlns:xlink="http://www.w3.org/1999/xlink" x="0px" y="0px"
	 viewBox="0 0 18 18" style="enable-background:new 0 0 18 18;" xml:space="preserve">
<style type="text/css">
	.st0{filter:url(#Adobe_OpacityMaskFilter);}
	.st1{fill-rule:evenodd;clip-rule:evenodd;fill:#FFFFFF;}
	.st2{mask:url(#mask-2_1_);fill-rule:evenodd;clip-rule:evenodd;fill:#030404;}
</style>
<desc>Created with Sketch.</desc>
<g id="theme_color">
	<g id="编组" transform="translate(2.000000, 2.000000)">
		<g id="Clip-2">
		</g>
		<defs>
			<filter id="Adobe_OpacityMaskFilter" filterUnits="userSpaceOnUse" x="0" y="0" width="14" height="14">
				<feColorMatrix  type="matrix" values="1 0 0 0 0  0 1 0 0 0  0 0 1 0 0  0 0 0 1 0"/>
			</filter>
		</defs>
		<mask maskUnits="userSpaceOnUse" x="0" y="0" width="14" height="14" id="mask-2_1_">
			<g class="st0">
				<polygon id="path-1_1_" class="st1" points="0,0 14,0 14,14 0,14 				"/>
			</g>
		</mask>
		<path id="Fill-1" class="st2" d="M10,5.1c0.6,0,1,0.4,1,1v0c0,0.5-0.4,0.9-0.9,1l-0.1,0c-0.6,0-1-0.5-1-1v0c0-0.5,0.4-0.9,0.9-1
			L10,5.1z M7,5.1c0.6,0,1,0.4,1,1v0c0,0.5-0.4,0.9-0.9,1L7,7.1c-0.6,0-1-0.5-1-1v0c0-0.5,0.4-0.9,0.9-1L7,5.1z M4,5.1
			c0.6,0,1,0.4,1,1v0c0,0.5-0.4,0.9-0.9,1L4,7.1c-0.6,0-1-0.5-1-1v0c0-0.5,0.4-0.9,0.9-1L4,5.1z M12,1H2.2C1.6,1,1.1,1.4,1,2l0,0.1
			V10c0,0.6,0.5,1.1,1,1.1l0.1,0h2.8c0.4,0,0.8,0.2,1.1,0.5l0.1,0.1l0.9,1l0.9-1c0.3-0.3,0.7-0.5,1.1-0.6l0.2,0h2.7
			c0.6,0,1-0.5,1.1-1l0-0.1l0-7.8c0-0.6-0.4-1.1-1-1.1L12,1z M11.9,0C13.1,0,14,1,14,2.2V10c0,1.2-0.9,2.2-2.1,2.2H9.1
			c-0.2,0-0.4,0.1-0.5,0.2l-1.1,1.4c-0.2,0.3-0.6,0.3-0.9,0.1c0,0-0.1-0.1-0.1-0.1l-1.1-1.4c-0.1-0.2-0.3-0.2-0.5-0.2H2.1
			c-1.2,0-2.1-1-2.1-2.2V2.2C0,1,0.9,0,2.1,0H11.9z"/>
	</g>
</g>
</svg>
