<?xml version="1.0" encoding="utf-8"?>
<!-- Generator: Adobe Illustrator 25.0.1, SVG Export Plug-In . SVG Version: 6.00 Build 0)  -->
<svg version="1.1" id="图层_1" xmlns="http://www.w3.org/2000/svg" xmlns:xlink="http://www.w3.org/1999/xlink" x="0px" y="0px"
	 viewBox="0 0 18 18" style="enable-background:new 0 0 18 18;" xml:space="preserve">
<style type="text/css">
	.st0{filter:url(#Adobe_OpacityMaskFilter);}
	.st1{fill-rule:evenodd;clip-rule:evenodd;fill:#FFFFFF;}
	.st2{mask:url(#mask-2_1_);fill-rule:evenodd;clip-rule:evenodd;}
</style>
<desc>Created with Sketch.</desc>
<g id="theme_color">
	<g id="编组" transform="translate(4.000000, 3.000000)">
		<g id="Clip-2">
		</g>
		<defs>
			<filter id="Adobe_OpacityMaskFilter" filterUnits="userSpaceOnUse" x="0" y="0" width="11" height="13">
				<feColorMatrix  type="matrix" values="1 0 0 0 0  0 1 0 0 0  0 0 1 0 0  0 0 0 1 0"/>
			</filter>
		</defs>
		<mask maskUnits="userSpaceOnUse" x="0" y="0" width="11" height="13" id="mask-2_1_">
			<g class="st0">
				<polygon id="path-1_1_" class="st1" points="0,0 11,0 11,13 0,13 				"/>
			</g>
		</mask>
		<path id="Fill-1" class="st2" d="M6,0v8.5L10.5,4L11,5.1L6,10l0,0l-1,0v0L0,5.1L0.5,4L5,8.5V0H6z M10,10.5c0,1.1-0.3,1.5-1.3,1.5
			c-0.6,0-6.2,0-6.4,0C1.6,12,1,11.4,1,10.7c0-0.1,0-0.1,0-0.2V9H0v1.9C0,12.6,1,13,2.8,13h5.9c1.6,0,2.3-0.4,2.3-2.1V9h-1L10,10.5
			L10,10.5z"/>
	</g>
</g>
</svg>
