<?xml version="1.0" encoding="utf-8"?>
<!-- Generator: Adobe Illustrator 25.0.1, SVG Export Plug-In . SVG Version: 6.00 Build 0)  -->
<svg version="1.1" id="图层_1" xmlns="http://www.w3.org/2000/svg" xmlns:xlink="http://www.w3.org/1999/xlink" x="0px" y="0px"
	 viewBox="0 0 18 18" style="enable-background:new 0 0 18 18;" xml:space="preserve">
<style type="text/css">
	.st0{filter:url(#Adobe_OpacityMaskFilter);}
	.st1{fill-rule:evenodd;clip-rule:evenodd;fill:#FFFFFF;}
	.st2{mask:url(#mask-2_1_);fill-rule:evenodd;clip-rule:evenodd;}
</style>
<desc>Created with Sketch.</desc>
<g id="theme_color">
	<g id="编组" transform="translate(3.000000, 3.000000)">
		<g id="Clip-2">
		</g>
		<defs>
			<filter id="Adobe_OpacityMaskFilter" filterUnits="userSpaceOnUse" x="0" y="0" width="12" height="12">
				<feColorMatrix  type="matrix" values="1 0 0 0 0  0 1 0 0 0  0 0 1 0 0  0 0 0 1 0"/>
			</filter>
		</defs>
		<mask maskUnits="userSpaceOnUse" x="0" y="0" width="12" height="12" id="mask-2_1_">
			<g class="st0">
				<polygon id="path-1_1_" class="st1" points="0,0 12,0 12,12 0,12 				"/>
			</g>
		</mask>
		<path id="Fill-1" class="st2" d="M11,1.7L4.7,8L4,7.3L10.3,1H8V0h4v4h-1V1.7z M10,12H2c-1.1,0-2-0.9-2-2V2c0-1.1,0.9-2,2-2h3v1H2
			C1.4,1,1,1.4,1,2v8c0,0.6,0.4,1,1,1h8c0.6,0,1-0.4,1-1V7h1v3C12,11.1,11.1,12,10,12L10,12z"/>
	</g>
</g>
</svg>
