<?xml version="1.0" encoding="utf-8"?>
<!-- Generator: Adobe Illustrator 25.0.1, SVG Export Plug-In . SVG Version: 6.00 Build 0)  -->
<svg version="1.1" id="图层_1" xmlns="http://www.w3.org/2000/svg" xmlns:xlink="http://www.w3.org/1999/xlink" x="0px" y="0px"
	 viewBox="0 0 18 18" style="enable-background:new 0 0 18 18;" xml:space="preserve">
<style type="text/css">
	.st0{filter:url(#Adobe_OpacityMaskFilter);}
	.st1{fill-rule:evenodd;clip-rule:evenodd;fill:#FFFFFF;}
	.st2{mask:url(#mask-2_1_);fill-rule:evenodd;clip-rule:evenodd;}
</style>
<desc>Created with Sketch.</desc>
<g id="theme_color">
	<g id="编组" transform="translate(3.000000, 2.000000)">
		<g id="Clip-2">
		</g>
		<defs>
			<filter id="Adobe_OpacityMaskFilter" filterUnits="userSpaceOnUse" x="0" y="0" width="13" height="13">
				<feColorMatrix  type="matrix" values="1 0 0 0 0  0 1 0 0 0  0 0 1 0 0  0 0 0 1 0"/>
			</filter>
		</defs>
		<mask maskUnits="userSpaceOnUse" x="0" y="0" width="13" height="13" id="mask-2_1_">
			<g class="st0">
				<polygon id="path-1_1_" class="st1" points="0,0 13,0 13,13 0,13 				"/>
			</g>
		</mask>
		<path id="Fill-1" class="st2" d="M9.9,8C10,7.7,10,6.9,10,6.6c0-2-1.6-3.6-3.5-3.6C4.6,3.1,3,4.7,3,6.6C3,7.1,3.1,7.6,3.3,8
			l0.9-0.4C4.1,7.3,4,7,4,6.6c0-1.4,1.1-2.5,2.5-2.5C7.9,4.1,9,5.2,9,6.6C9,7,9,7.6,8.9,7.7L9.9,8z M6.5,0C2.9,0,0,2.9,0,6.5
			C0,8.2,0.6,9.8,1.8,11c0.1,0.1,0.2,0.2,0.4,0.2c0.1,0,0.2,0,0.3-0.1c0.2-0.2,0.2-0.5,0-0.7C1.5,9.3,1,8,1,6.5C1,3.5,3.5,1,6.5,1
			c3,0,5.5,2.5,5.5,5.5c0,1.3-0.5,2.6-1.4,3.7c-0.2,0.2-0.2,0.5,0,0.7c0.2,0.2,0.5,0.2,0.7,0c1-1.2,1.6-2.7,1.6-4.3
			C13,2.9,10.1,0,6.5,0L6.5,0z M6.9,7.2c-0.2-0.3-0.7-0.3-0.9,0l-3.4,5.5L2.5,13h1.2l2.8-4.6L9.3,13h1.2l-0.2-0.4L6.9,7.2z"/>
	</g>
</g>
</svg>
