<svg id="图层_1" data-name="图层 1" xmlns="http://www.w3.org/2000/svg" xmlns:xlink="http://www.w3.org/1999/xlink" viewBox="0 0 566.92913 566.92913"><defs><style>.cls-1{fill:#f5d522;}.cls-2{fill:url(#未命名的渐变_2);}</style><linearGradient id="未命名的渐变_2" x1="12.08315" y1="697.88097" x2="12.08315" y2="673.98008" gradientTransform="matrix(11.73815, 0, 0, -22.58818, 157.04496, 15764.34202)" gradientUnits="userSpaceOnUse"><stop offset="0" stop-color="#35b9bb"/><stop offset="0.1617" stop-color="#36b7a5"/><stop offset="0.4497" stop-color="#3fb584"/><stop offset="0.6" stop-color="#41b477"/><stop offset="0.7" stop-color="#39b273"/><stop offset="0.8857" stop-color="#2db06d"/><stop offset="1" stop-color="#2db06b"/></linearGradient></defs><path class="cls-1" d="M448.40461,58.34208,439.17888,0,407.94043,33.79586a281.69589,281.69589,0,0,0-124.452-29.25469C128.3,4.56507,2.27058,130.57056,2.27058,285.75906S128.3,566.92913,283.48846,566.92913,564.65855,440.94754,564.65855,285.75906C564.65855,192.54559,518.55372,109.56169,448.40461,58.34208Z"/><path class="cls-2" d="M398.21273,376.917,281.911,177.17731C340.30087,146.44076,410.97582,83.438,439.15494.478,366.42453,53.75311,274.74073,66.54008,194.864,66.03816a14.74684,14.74684,0,0,0-12.81088,22.01272l23.56628,40.46421L320.34362,326.72518a136.83247,136.83247,0,0,0-43.54741-2.5574c-70.173,6.14252-123.4242,59.41763-117.78359,118.81132,5.1148,59.41761,66.564,102.94116,136.737,96.79863S419.17384,480.384,413.55711,420.96639A92.68747,92.68747,0,0,0,398.18885,376.917Z"/></svg>